<svg t="1678413747193" class="icon" viewBox="0 0 1024 1024" version="1.1" xmlns="http://www.w3.org/2000/svg" p-id="6837" width="15" height="15">
    <path d="M865.055476 173.880189 539.353486 68.524676c-17.763572-5.656837-37.032428-5.656837-54.79907 0L158.853449 
    173.880189c-27.663036 8.927323-46.224788 34.470069-46.224788 63.549362l0 231.306086c0 133.635603 64.255443 260.646322
        171.998329 339.930039L472.35763 946.725032c11.577686 8.573259 25.278733 12.991895 39.596833 12.991895 14.320147 0 
        28.019147-4.507664 39.594787-12.991895l187.82069-138.060379c107.742886-79.196737 
        171.999352-206.294436 171.999352-339.930039L911.369292 237.429551C911.279241 208.350259 892.720559 
        182.807513 865.055476 173.880189L865.055476 173.880189zM854.35988 470.237851c0 115.342981-55.506175 
        225.031173-148.399865 293.349141L524.771373 896.785643c-7.515161 5.478781-18.119683 5.569856-25.720801 
        0L317.948911 763.586992c-92.982718-68.317968-148.399865-178.00616-148.399865-293.349141L169.549046 247.15096c0-9.368368 
        6.009877-17.676591 14.937201-20.503986l314.209238-101.645005c4.330632-1.414209 8.752338-2.12029 13.258978-2.12029 4.51278 
        0 8.928347 0.706081 13.263072 2.12029l314.12328 101.645005c8.9263 2.827395 14.938224 11.135618 14.938224 20.503986l0.088004 
        223.086891L854.35988 470.237851zM711.618898 315.828109 312.292074 315.828109c-12.285814 0-22.184255 9.898441-22.184255 
        22.182208 0 12.287861 9.898441 32.790824 22.184255 32.790824L484.467435 370.801141l0 320.397171c0 12.289907 15.201214 
        22.188348 27.487028 22.188348s28.373211-9.898441 28.373211-22.188348l0-320.397171 171.292248 0c12.283768 0 22.183232-20.502963 
        22.183232-32.790824C733.80213 325.726549 723.902666 315.828109 711.618898 315.828109L711.618898 315.828109zM711.618898 315.828109" fill="#c0c4cc" p-id="6838">
    </path>
</svg>